HIERARCHY
ROOT Hips
{
    OFFSET 0.000000 0.000000 0.000000
    CHANNELS 6 Xposition Yposition Zposition Zrotation Xrotation Yrotation
    JOINT Spine
    {
        OFFSET 0.000002 7.164412 0.000002
        CHANNELS 3 Zrotation Xrotation Yrotation
        JOINT Spine1
        {
            OFFSET -0.000001 20.126801 -0.000002
            CHANNELS 3 Zrotation Xrotation Yrotation
            JOINT Neck
            {
                OFFSET 0.000000 21.094069 0.000000
                CHANNELS 3 Zrotation Xrotation Yrotation
                JOINT Head
                {
                    OFFSET -0.000001 12.838277 1.776080
                    CHANNELS 3 Zrotation Xrotation Yrotation
                    End Site
                    {
                        OFFSET 0.000000 17.760757 0.000000
                    }
                }
            }
            JOINT LeftShoulder
            {
                OFFSET 3.550527 15.465700 -0.908803
                CHANNELS 3 Zrotation Xrotation Yrotation
                JOINT LeftArm
                {
                    OFFSET 12.513296 -0.000006 -0.000002
                    CHANNELS 3 Zrotation Xrotation Yrotation
                    JOINT LeftForeArm
                    {
                        OFFSET 24.225996 -0.000003 0.000001
                        CHANNELS 3 Zrotation Xrotation Yrotation
                        JOINT LeftHand
                        {
                            OFFSET 20.711399 -0.000005 -0.000004
                            CHANNELS 3 Zrotation Xrotation Yrotation
                            JOINT LeftHandThumb1
                            {
                                OFFSET 2.121969 -2.411331 3.375859
                                CHANNELS 3 Zrotation Xrotation Yrotation
                                JOINT LeftHandThumb2
                                {
                                    OFFSET 2.803208 0.000003 0.000001
                                    CHANNELS 3 Zrotation Xrotation Yrotation
                                    JOINT LeftHandThumb3
                                    {
                                        OFFSET 2.395929 0.000004 -0.000003
                                        CHANNELS 3 Zrotation Xrotation Yrotation
                                        End Site
                                        {
                                            OFFSET 2.127676 0.000000 0.000000
                                        }
                                    }
                                }
                            }
                            JOINT LeftHandIndex1
                            {
                                OFFSET 8.680775 0.000005 3.375860
                                CHANNELS 3 Zrotation Xrotation Yrotation
                                JOINT LeftHandIndex2
                                {
                                    OFFSET 4.218178 -0.000000 -0.000000
                                    CHANNELS 3 Zrotation Xrotation Yrotation
                                    JOINT LeftHandIndex3
                                    {
                                        OFFSET 2.109086 -0.000004 0.000002
                                        CHANNELS 3 Zrotation Xrotation Yrotation
                                        End Site
                                        {
                                            OFFSET 1.872952 0.000000 0.000000
                                        }
                                    }
                                }
                            }
                            JOINT LeftHandMiddle1
                            {
                                OFFSET 8.680778 -0.000002 1.118860
                                CHANNELS 3 Zrotation Xrotation Yrotation
                                JOINT LeftHandMiddle2
                                {
                                    OFFSET 4.640003 -0.000004 -0.000001
                                    CHANNELS 3 Zrotation Xrotation Yrotation
                                    JOINT LeftHandMiddle3
                                    {
                                        OFFSET 2.530911 0.000002 -0.000001
                                        CHANNELS 3 Zrotation Xrotation Yrotation
                                        End Site
                                        {
                                            OFFSET 2.247544 0.000000 0.000000
                                        }
                                    }
                                }
                            }
                            JOINT LeftHandRing1
                            {
                                OFFSET 8.198517 0.000004 -1.118860
                                CHANNELS 3 Zrotation Xrotation Yrotation
                                JOINT LeftHandRing2
                                {
                                    OFFSET 4.218183 -0.000002 -0.000002
                                    CHANNELS 3 Zrotation Xrotation Yrotation
                                    JOINT LeftHandRing3
                                    {
                                        OFFSET 2.109094 0.000005 -0.000000
                                        CHANNELS 3 Zrotation Xrotation Yrotation
                                        End Site
                                        {
                                            OFFSET 1.872952 0.000000 0.000000
                                        }
                                    }
                                }
                            }
                            JOINT LeftHandPinky1
                            {
                                OFFSET 7.716254 0.000002 -3.375863
                                CHANNELS 3 Zrotation Xrotation Yrotation
                                JOINT LeftHandPinky2
                                {
                                    OFFSET 3.374536 0.000002 0.000001
                                    CHANNELS 3 Zrotation Xrotation Yrotation
                                    JOINT LeftHandPinky3
                                    {
                                        OFFSET 1.687274 -0.000002 -0.000004
                                        CHANNELS 3 Zrotation Xrotation Yrotation
                                        End Site
                                        {
                                            OFFSET 1.498360 0.000000 0.000000
                                        }
                                    }
                                }
                            }
                        }
                    }
                }
            }
            JOINT RightShoulder
            {
                OFFSET -3.550529 15.465699 -0.908801
                CHANNELS 3 Zrotation Xrotation Yrotation
                JOINT RightArm
                {
                    OFFSET -12.513299 -0.000001 -0.000000
                    CHANNELS 3 Zrotation Xrotation Yrotation
                    JOINT RightForeArm
                    {
                        OFFSET -24.226000 -0.000003 -0.000001
                        CHANNELS 3 Zrotation Xrotation Yrotation
                        JOINT RightHand
                        {
                            OFFSET -20.711397 -0.000003 -0.000002
                            CHANNELS 3 Zrotation Xrotation Yrotation
                            JOINT RightHandThumb1
                            {
                                OFFSET -2.121970 -2.411331 3.375859
                                CHANNELS 3 Zrotation Xrotation Yrotation
                                JOINT RightHandThumb2
                                {
                                    OFFSET -2.803209 -0.000004 0.000004
                                    CHANNELS 3 Zrotation Xrotation Yrotation
                                    JOINT RightHandThumb3
                                    {
                                        OFFSET -2.395928 0.000004 -0.000003
                                        CHANNELS 3 Zrotation Xrotation Yrotation
                                        End Site
                                        {
                                            OFFSET -2.127676 0.000000 0.000000
                                        }
                                    }
                                }
                            }
                            JOINT RightHandIndex1
                            {
                                OFFSET -8.680779 0.000001 3.375859
                                CHANNELS 3 Zrotation Xrotation Yrotation
                                JOINT RightHandIndex2
                                {
                                    OFFSET -4.218179 0.000003 -0.000001
                                    CHANNELS 3 Zrotation Xrotation Yrotation
                                    JOINT RightHandIndex3
                                    {
                                        OFFSET -2.109090 -0.000002 0.000000
                                        CHANNELS 3 Zrotation Xrotation Yrotation
                                        End Site
                                        {
                                            OFFSET -1.872952 0.000000 0.000000
                                        }
                                    }
                                }
                            }
                            JOINT RightHandMiddle1
                            {
                                OFFSET -8.680779 -0.000002 1.118859
                                CHANNELS 3 Zrotation Xrotation Yrotation
                                JOINT RightHandMiddle2
                                {
                                    OFFSET -4.639998 0.000003 -0.000001
                                    CHANNELS 3 Zrotation Xrotation Yrotation
                                    JOINT RightHandMiddle3
                                    {
                                        OFFSET -2.530910 -0.000000 -0.000000
                                        CHANNELS 3 Zrotation Xrotation Yrotation
                                        End Site
                                        {
                                            OFFSET -2.247544 0.000000 0.000000
                                        }
                                    }
                                }
                            }
                            JOINT RightHandRing1
                            {
                                OFFSET -8.198519 -0.000004 -1.118859
                                CHANNELS 3 Zrotation Xrotation Yrotation
                                JOINT RightHandRing2
                                {
                                    OFFSET -4.218180 -0.000005 0.000000
                                    CHANNELS 3 Zrotation Xrotation Yrotation
                                    JOINT RightHandRing3
                                    {
                                        OFFSET -2.109090 0.000002 0.000002
                                        CHANNELS 3 Zrotation Xrotation Yrotation
                                        End Site
                                        {
                                            OFFSET -1.872952 0.000000 0.000000
                                        }
                                    }
                                }
                            }
                            JOINT RightHandPinky1
                            {
                                OFFSET -7.716249 0.000004 -3.375858
                                CHANNELS 3 Zrotation Xrotation Yrotation
                                JOINT RightHandPinky2
                                {
                                    OFFSET -3.374539 0.000003 -0.000000
                                    CHANNELS 3 Zrotation Xrotation Yrotation
                                    JOINT RightHandPinky3
                                    {
                                        OFFSET -1.687270 -0.000004 -0.000001
                                        CHANNELS 3 Zrotation Xrotation Yrotation
                                        End Site
                                        {
                                            OFFSET -1.498360 0.000000 0.000000
                                        }
                                    }
                                }
                            }
                        }
                    }
                }
            }
        }
    }
    JOINT LeftUpLeg
    {
        OFFSET 8.880377 0.000003 0.000001
        CHANNELS 3 Zrotation Xrotation Yrotation
        JOINT LeftLeg
        {
            OFFSET -0.000000 -40.387413 0.000001
            CHANNELS 3 Zrotation Xrotation Yrotation
            JOINT LeftFoot
            {
                OFFSET -0.000000 -36.911304 0.000000
                CHANNELS 3 Zrotation Xrotation Yrotation
                JOINT LeftToeBase
                {
                    OFFSET 0.000003 -5.772240 13.320597
                    CHANNELS 3 Zrotation Xrotation Yrotation
                    End Site
                    {
                        OFFSET 0.000000 0.000000 3.552151
                    }
                }
            }
        }
    }
    JOINT RightUpLeg
    {
        OFFSET -8.880380 -0.000003 -0.000001
        CHANNELS 3 Zrotation Xrotation Yrotation
        JOINT RightLeg
        {
            OFFSET 0.000001 -40.387405 0.000000
            CHANNELS 3 Zrotation Xrotation Yrotation
            JOINT RightFoot
            {
                OFFSET -0.000001 -36.911304 -0.000001
                CHANNELS 3 Zrotation Xrotation Yrotation
                JOINT RightToeBase
                {
                    OFFSET 0.000000 -5.772241 13.320600
                    CHANNELS 3 Zrotation Xrotation Yrotation
                    End Site
                    {
                        OFFSET 0.000000 0.000000 3.552151
                    }
                }
            }
        }
    }
}
MOTION
Frames: 4
Frame Time: 0.013889
32.744507    82.548447    23.374609    -1.840446    5.165615    -38.988590    2.687654    -20.101707    7.777661    -3.109400    13.062595    7.816186    3.523987    -5.512325    -8.550067    5.518500    2.548016    -9.177312    -2.923038    -1.903929    -1.361702    -32.772339    6.212194    -26.185471    -3.752708    -7.860901    -25.621250    -9.311606    8.517278    5.675791    32.912102    33.041206    -44.241890    -14.733210    -1.217118    23.287451    -0.000000    0.000000    -0.000000    -12.247793    17.615866    -2.536752    -11.665177    -0.000004    0.000002    -11.665182    0.000003    0.000003    -9.591992    8.876197    -1.654037    -9.476052    0.000003    -0.000001    -9.476059    -0.000003    -0.000003    -8.484454    -8.903097    -2.879839    -8.381485    -0.000000    0.000004    -8.381488    -0.000003    -0.000000    -7.657575    -17.849655    -5.474572    -7.286923    -0.000004    0.000007    -7.286914    0.000007    0.000003    0.623283    0.820450    8.510076    47.123997    15.696970    16.186764    0.423975    -28.943968    0.876016    4.052228    6.822684    -18.374586    -38.721989    28.528276    45.088341    15.382143    -1.496246    -23.272093    -0.000000    0.000000    -0.000000    11.148228    17.681643    4.988611    10.615300    0.000000    0.000000    10.615311    0.000000    0.000000    9.935110    8.867201    2.660366    9.815182    -0.000000    0.000000    9.815192    0.000001    -0.000001    9.530351    -8.877777    0.797827    9.415128    0.000002    0.000002    9.415136    -0.000002    -0.000001    9.470803    -17.770140    1.541880    9.015074    0.000002    0.000002    9.015068    0.000004    -0.000002    9.322550    -29.795540    14.849585    0.000000    13.197007    0.000006    -9.921206    12.535104    10.278764    -0.000003    5.639997    -0.000003    12.881502    2.386180    -23.772253    0.000003    4.846076    -0.000011    4.002625    -7.571245    6.855109    -0.000002    0.697639    0.000008    
32.769932    82.574394    23.167709    -2.037032    4.890453    -38.745522    2.794539    -19.884644    8.166913    -3.221760    13.067165    8.207732    3.093131    -5.560537    -9.065349    5.496728    2.448214    -9.650873    -3.203348    -1.836086    -1.003599    -34.566494    4.043105    -25.073315    -4.004703    -8.389309    -25.633995    -7.746486    8.179532    5.415538    32.915882    33.046127    -44.174419    -14.729460    -1.215502    23.287535    -0.000000    0.000000    -0.000000    -12.302678    17.612423    -2.310177    -11.717592    -0.000001    0.000006    -11.717602    0.000000    -0.000003    -9.675800    8.874028    -1.536123    -9.558897    0.000001    -0.000010    -9.558889    -0.000007    0.000008    -8.583674    -8.900820    -2.871050    -8.479532    0.000003    0.000001    -8.479547    -0.000007    0.000001    -7.776470    -17.844963    -5.462706    -7.400174    0.000003    0.000007    -7.400184    0.000004    -0.000003    0.776063    0.791743    8.639383    46.966248    15.572457    17.149820    0.671045    -29.802889    1.349940    2.041126    7.176175    -18.360731    -38.886505    28.420019    45.039841    15.244035    -1.436855    -23.275629    -0.000000    0.000000    -0.000000    11.348941    17.670094    4.617746    10.806891    0.000000    0.000000    10.806880    0.000000    0.000000    9.906490    8.867961    2.509815    9.786901    0.000001    -0.000000    9.786908    -0.000001    -0.000001    9.390491    -8.881334    0.763050    9.276915    0.000001    -0.000003    9.276900    -0.000001    0.000001    9.210525    -17.782585    1.436040    8.766907    0.000005    0.000001    8.766923    -0.000004    -0.000003    9.881535    -29.973845    14.336173    -0.000001    15.698769    0.000001    -8.301817    11.077460    8.809237    0.000000    5.100770    0.000001    12.833138    2.409617    -24.162052    0.000001    5.211262    -0.000000    4.334237    -7.573842    7.034248    0.000000    0.734384    -0.000000    
32.783211    82.590309    23.024963    -2.181165    4.687608    -38.569836    2.875287    -19.739700    8.458296    -3.310195    13.086173    8.501905    2.810783    -5.610485    -9.450625    5.512813    2.368712    -10.010399    -3.386817    -1.770660    -0.744184    -35.901772    2.431017    -24.265533    -4.161707    -8.701102    -25.686920    -6.631509    7.983583    5.232538    32.881660    33.082405    -44.082108    -14.743375    -1.221492    23.287239    -0.000000    0.000000    -0.000000    -12.350383    17.609407    -2.227232    -11.763166    -0.000012    0.000012    -11.763183    0.000005    -0.000013    -9.748964    8.872115    -1.490584    -9.631206    -0.000003    -0.000006    -9.631207    -0.000007    0.000001    -8.670367    -8.898811    -2.851836    -8.565222    -0.000004    0.000002    -8.565223    -0.000003    -0.000007    -7.880438    -17.840794    -5.429316    -7.499235    -0.000000    0.000001    -7.499237    0.000000    -0.000003    0.870750    0.820150    8.734503    46.847244    15.524286    17.887047    0.884587    -30.243668    1.755838    0.682697    7.422845    -18.380924    -39.044796    28.286547    45.094059    15.115729    -1.381675    -23.278784    -0.000000    0.000000    -0.000000    11.498813    17.661337    4.305100    10.949946    -0.000000    0.000001    10.949962    0.000000    0.000001    9.865221    8.869059    2.382594    9.746132    -0.000002    -0.000001    9.746108    0.000001    0.000001    9.256225    -8.884696    0.739064    9.144206    -0.000003    -0.000001    9.144210    -0.000000    -0.000002    8.974897    -17.793550    1.357555    8.542273    0.000001    0.000003    8.542284    -0.000002    -0.000003    10.290634    -30.098745    13.860123    -0.000001    17.633991    0.000001    -7.009198    10.040724    7.855476    0.000000    4.708976    -0.000001    12.810736    2.416839    -24.487341    -0.000001    5.495541    -0.000003    4.414431    -7.541368    7.178486    -0.000000    0.744870    -0.000003    
32.806293    82.606476    22.895660    -2.308443    4.476242    -38.397373    2.954044    -19.582905    8.752645    -3.415741    13.101055    8.803645    2.535186    -5.661010    -9.818713    5.516469    2.296205    -10.352839    -3.553743    -1.685453    -0.515121    -37.196964    0.886689    -23.468920    -4.297091    -8.960054    -25.754911    -5.553913    7.804130    4.950383    32.788086    33.163212    -43.986172    -14.787739    -1.240578    23.286293    -0.000000    0.000000    -0.000000    -12.340985    17.610006    -2.231449    -11.754196    0.000000    -0.000003    -11.754190    -0.000004    0.000007    -9.792222    8.870985    -1.484599    -9.673945    -0.000000    0.000006    -9.673957    0.000004    -0.000002    -8.739787    -8.897182    -2.839451    -8.633843    0.000001    -0.000007    -8.633830    -0.000000    0.000003    -7.979570    -17.836761    -5.413433    -7.593717    0.000000    -0.000003    -7.593721    -0.000003    -0.000000    0.950843    0.884821    8.849169    46.737686    15.540764    18.634251    1.109478    -30.503078    2.185024    -0.672758    7.695434    -18.420670    -39.153412    28.184675    45.164684    15.003181    -1.333265    -23.281448    -0.000000    0.000000    -0.000000    11.615561    17.654438    3.972573    11.061422    0.000000    0.000001    11.061421    0.000001    0.000001    9.809174    8.870538    2.242681    9.690722    -0.000001    0.000000    9.690714    -0.000000    0.000001    9.115741    -8.888162    0.715955    9.005364    -0.000003    0.000001    9.005368    0.000001    -0.000002    8.741722    -17.804134    1.283457    8.320008    0.000000    -0.000002    8.320002    0.000004    -0.000000    10.670741    -30.211962    13.233084    -0.000001    19.583302    0.000004    -5.912148    9.114813    7.036716    0.000001    4.387171    0.000002    12.787079    2.410566    -24.746906    0.000002    5.780553    -0.000009    4.238257    -7.489728    7.211351    -0.000002    0.708845    0.000007    
